<svg xmlns="http://www.w3.org/2000/svg" viewBox="0 0 200 200">
  <rect width="200" height="200" fill="#e3ebdf"/>
  <circle cx="100" cy="92" r="74" fill="#eef3ea"/>
<rect x="61" y="112" width="78" height="14" rx="7" fill="#c96f47"/>
  <path d="M68 122h64l-7 32a8 8 0 0 1-8 7H83a8 8 0 0 1-8-7z" fill="#b15a34"/>
  <path d="M66 118C56 132 50 150 48 168M134 118C144 132 150 150 152 168" fill="none" stroke="#6f9b74" stroke-width="3" stroke-linecap="round"/><circle cx="78" cy="104" r="13" fill="#2c5a40"/><path d="M70.85 107.25Q78 98.8 85.15 107.25" fill="none" stroke="#eef3ea" stroke-width="1.8"/><circle cx="100" cy="96" r="15" fill="#6f9b74"/><path d="M91.75 99.75Q100 90 108.25 99.75" fill="none" stroke="#eef3ea" stroke-width="1.8"/><circle cx="122" cy="102" r="13" fill="#2c5a40"/><path d="M114.85 105.25Q122 96.8 129.15 105.25" fill="none" stroke="#eef3ea" stroke-width="1.8"/><circle cx="64" cy="116" r="12" fill="#6f9b74"/><path d="M57.4 119Q64 111.2 70.6 119" fill="none" stroke="#eef3ea" stroke-width="1.8"/><circle cx="136" cy="114" r="12" fill="#6f9b74"/><path d="M129.4 117Q136 109.2 142.6 117" fill="none" stroke="#eef3ea" stroke-width="1.8"/><circle cx="90" cy="112" r="12" fill="#a7c3a5"/><path d="M83.4 115Q90 107.2 96.6 115" fill="none" stroke="#eef3ea" stroke-width="1.8"/><circle cx="112" cy="110" r="12" fill="#2c5a40"/><path d="M105.4 113Q112 105.2 118.6 113" fill="none" stroke="#eef3ea" stroke-width="1.8"/><circle cx="88" cy="84" r="11" fill="#2c5a40"/><path d="M81.95 86.75Q88 79.6 94.05 86.75" fill="none" stroke="#eef3ea" stroke-width="1.8"/><circle cx="112" cy="82" r="11" fill="#6f9b74"/><path d="M105.95 84.75Q112 77.6 118.05 84.75" fill="none" stroke="#eef3ea" stroke-width="1.8"/><circle cx="100" cy="70" r="10" fill="#2c5a40"/><path d="M94.5 72.5Q100 66 105.5 72.5" fill="none" stroke="#eef3ea" stroke-width="1.8"/><circle cx="54" cy="138" r="10" fill="#2c5a40"/><path d="M48.5 140.5Q54 134 59.5 140.5" fill="none" stroke="#eef3ea" stroke-width="1.8"/><circle cx="146" cy="136" r="10" fill="#2c5a40"/><path d="M140.5 138.5Q146 132 151.5 138.5" fill="none" stroke="#eef3ea" stroke-width="1.8"/><circle cx="48" cy="158" r="9" fill="#6f9b74"/><path d="M43.05 160.25Q48 154.4 52.95 160.25" fill="none" stroke="#eef3ea" stroke-width="1.8"/><circle cx="152" cy="156" r="9" fill="#6f9b74"/><path d="M147.05 158.25Q152 152.4 156.95 158.25" fill="none" stroke="#eef3ea" stroke-width="1.8"/><circle cx="46" cy="174" r="8" fill="#2c5a40"/><path d="M41.6 176Q46 170.8 50.4 176" fill="none" stroke="#eef3ea" stroke-width="1.8"/><circle cx="154" cy="172" r="8" fill="#2c5a40"/><path d="M149.6 174Q154 168.8 158.4 174" fill="none" stroke="#eef3ea" stroke-width="1.8"/>
<rect x="63" y="128" width="74" height="14" rx="7" fill="#c96f47"/><path d="M70 136h60l-6 30a8 8 0 0 1-8 7H84a8 8 0 0 1-8-7z" fill="#b15a34"/>
</svg>